<svg width="323" height="102" viewBox="0 0 323 102" fill="none" xmlns="http://www.w3.org/2000/svg">
<path d="M26.0124 36.4423C25.875 34.9308 25.2635 33.7559 24.1779 32.9177C23.1061 32.0657 21.5739 31.6397 19.5814 31.6397C18.2623 31.6397 17.163 31.8115 16.2835 32.155C15.4041 32.4986 14.7445 32.9727 14.3048 33.5773C13.865 34.1682 13.6383 34.8483 13.6246 35.6179C13.5971 36.25 13.7207 36.8065 13.9956 37.2874C14.2841 37.7684 14.6964 38.1944 15.2323 38.5654C15.7819 38.9227 16.4415 39.2387 17.211 39.5135C17.9806 39.7884 18.8463 40.0288 19.8082 40.235L23.4359 41.0594C25.5246 41.5129 27.3659 42.1175 28.9599 42.8733C30.5676 43.6291 31.9143 44.5291 32.9999 45.5735C34.0992 46.6178 34.9305 47.8202 35.4939 49.1806C36.0573 50.541 36.3459 52.0663 36.3596 53.7565C36.3459 56.4223 35.6726 58.7102 34.3396 60.6203C33.0067 62.5303 31.0898 63.9938 28.5889 65.0106C26.1017 66.0275 23.0992 66.5359 19.5814 66.5359C16.0499 66.5359 12.9718 66.0069 10.3472 64.9488C7.72264 63.8907 5.68205 62.283 4.22547 60.1256C2.76888 57.9682 2.01998 55.2405 1.97876 51.9426H11.7489C11.8313 53.303 12.1955 54.4367 12.8413 55.3436C13.4871 56.2505 14.3735 56.9376 15.5002 57.4048C16.6408 57.872 17.96 58.1056 19.4578 58.1056C20.8319 58.1056 21.9999 57.9201 22.9618 57.5491C23.9374 57.1781 24.6863 56.6627 25.2085 56.0032C25.7307 55.3436 25.9986 54.5878 26.0124 53.7358C25.9986 52.9388 25.7513 52.2586 25.2704 51.6952C24.7894 51.1181 24.0474 50.6234 23.0443 50.2112C22.0549 49.7852 20.7907 49.3936 19.2516 49.0363L14.8407 48.0057C11.1855 47.1675 8.30665 45.8139 6.20422 43.9451C4.10179 42.0626 3.05745 39.5204 3.07119 36.3187C3.05745 33.7078 3.75826 31.4199 5.17362 29.4549C6.58898 27.4899 8.54712 25.9577 11.048 24.8584C13.549 23.7591 16.4003 23.2094 19.602 23.2094C22.8725 23.2094 25.7101 23.7659 28.1148 24.879C30.5333 25.9783 32.409 27.5242 33.7419 29.5167C35.0748 31.5092 35.755 33.8177 35.7825 36.4423H26.0124ZM41.5126 77.8725V34.3399H51.4889V39.7609H51.798C52.2103 38.799 52.7943 37.8714 53.5501 36.9783C54.3196 36.0851 55.2952 35.3568 56.477 34.7934C57.6725 34.2162 59.1016 33.9277 60.7643 33.9277C62.9629 33.9277 65.0172 34.5048 66.9273 35.6591C68.8511 36.8134 70.4038 38.5929 71.5856 40.9976C72.7673 43.4023 73.3582 46.4667 73.3582 50.1906C73.3582 53.7771 72.788 56.7796 71.6474 59.198C70.5206 61.6165 68.9953 63.4304 67.0715 64.6396C65.1615 65.8488 63.0385 66.4535 60.7024 66.4535C59.1084 66.4535 57.7274 66.1924 56.5594 65.6702C55.3914 65.148 54.4089 64.461 53.6119 63.609C52.8286 62.757 52.224 61.8432 51.798 60.8676H51.5919V77.8725H41.5126ZM51.3858 50.17C51.3858 51.8739 51.6125 53.358 52.066 54.6222C52.5332 55.8864 53.1997 56.8689 54.0654 57.5697C54.9448 58.2567 55.996 58.6003 57.219 58.6003C58.4557 58.6003 59.5069 58.2567 60.3726 57.5697C61.2383 56.8689 61.8911 55.8864 62.3308 54.6222C62.7842 53.358 63.011 51.8739 63.011 50.17C63.011 48.466 62.7842 46.9888 62.3308 45.7384C61.8911 44.4879 61.2383 43.5191 60.3726 42.8321C59.5207 42.145 58.4695 41.8015 57.219 41.8015C55.9823 41.8015 54.9311 42.1381 54.0654 42.8115C53.1997 43.4848 52.5332 44.4467 52.066 45.6971C51.6125 46.9476 51.3858 48.4385 51.3858 50.17ZM93.4189 66.5977C90.0935 66.5977 87.2353 65.9176 84.8443 64.5572C82.467 63.183 80.6326 61.273 79.3409 58.827C78.0629 56.3673 77.4239 53.516 77.4239 50.273C77.4239 47.0163 78.0629 44.165 79.3409 41.719C80.6326 39.2593 82.467 37.3493 84.8443 35.9889C87.2353 34.6147 90.0935 33.9277 93.4189 33.9277C96.7443 33.9277 99.5956 34.6147 101.973 35.9889C104.364 37.3493 106.198 39.2593 107.476 41.719C108.768 44.165 109.414 47.0163 109.414 50.273C109.414 53.516 108.768 56.3673 107.476 58.827C106.198 61.273 104.364 63.183 101.973 64.5572C99.5956 65.9176 96.7443 66.5977 93.4189 66.5977ZM93.4807 58.9919C94.69 58.9919 95.7137 58.6209 96.5519 57.8789C97.3901 57.1368 98.0291 56.1062 98.4688 54.7871C98.9223 53.4679 99.149 51.9426 99.149 50.2112C99.149 48.4523 98.9223 46.9133 98.4688 45.5941C98.0291 44.2749 97.3901 43.2443 96.5519 42.5023C95.7137 41.7603 94.69 41.3892 93.4807 41.3892C92.2303 41.3892 91.1722 41.7603 90.3065 42.5023C89.4545 43.2443 88.8018 44.2749 88.3483 45.5941C87.9086 46.9133 87.6887 48.4523 87.6887 50.2112C87.6887 51.9426 87.9086 53.4679 88.3483 54.7871C88.8018 56.1062 89.4545 57.1368 90.3065 57.8789C91.1722 58.6209 92.2303 58.9919 93.4807 58.9919ZM132.448 34.3399V41.7603H112.475V34.3399H132.448ZM116.659 26.7547H126.738V56.0444C126.738 56.6627 126.834 57.1643 127.027 57.5491C127.233 57.9201 127.528 58.188 127.913 58.3529C128.298 58.5041 128.758 58.5797 129.294 58.5797C129.679 58.5797 130.084 58.5453 130.51 58.4766C130.95 58.3942 131.28 58.3255 131.5 58.2705L133.025 65.5465C132.544 65.6839 131.864 65.8557 130.984 66.0618C130.119 66.268 129.081 66.3985 127.872 66.4535C125.508 66.5634 123.482 66.2886 121.791 65.629C120.115 64.9557 118.83 63.9113 117.937 62.496C117.057 61.0806 116.631 59.3011 116.659 57.1574V26.7547ZM148.35 23.7866V66H138.271V23.7866H148.35ZM154.765 66V34.3399H164.845V66H154.765ZM159.815 30.6504C158.4 30.6504 157.184 30.1832 156.167 29.2487C155.15 28.3006 154.642 27.1601 154.642 25.8271C154.642 24.508 155.15 23.3812 156.167 22.4468C157.184 21.4986 158.4 21.0245 159.815 21.0245C161.244 21.0245 162.461 21.4986 163.464 22.4468C164.481 23.3812 164.989 24.508 164.989 25.8271C164.989 27.1601 164.481 28.3006 163.464 29.2487C162.461 30.1832 161.244 30.6504 159.815 30.6504ZM186.018 78.5321C183.009 78.5321 180.433 78.113 178.289 77.2748C176.145 76.4366 174.462 75.2892 173.239 73.8326C172.016 72.376 171.281 70.727 171.033 68.8857L180.577 68.3498C180.755 68.9956 181.085 69.559 181.566 70.04C182.061 70.5209 182.7 70.8919 183.483 71.153C184.28 71.4141 185.215 71.5446 186.286 71.5446C187.977 71.5446 189.371 71.1324 190.471 70.3079C191.584 69.4972 192.14 68.0749 192.14 66.0412V60.476H191.79C191.391 61.4516 190.787 62.3242 189.976 63.0937C189.165 63.8632 188.155 64.4678 186.946 64.9076C185.75 65.3473 184.376 65.5671 182.824 65.5671C180.515 65.5671 178.399 65.0312 176.475 63.9594C174.565 62.8738 173.033 61.1974 171.879 58.9301C170.738 56.649 170.168 53.7152 170.168 50.1287C170.168 46.4323 170.759 43.3886 171.94 40.9976C173.122 38.5929 174.668 36.8134 176.578 35.6591C178.502 34.5048 180.57 33.9277 182.782 33.9277C184.445 33.9277 185.867 34.2162 187.049 34.7934C188.245 35.3568 189.227 36.0851 189.997 36.9783C190.766 37.8714 191.35 38.799 191.749 39.7609H192.037V34.3399H202.075V66.1237C202.075 68.8032 201.402 71.0637 200.055 72.905C198.709 74.7464 196.826 76.1411 194.408 77.0893C191.989 78.0512 189.193 78.5321 186.018 78.5321ZM186.328 58.2293C187.551 58.2293 188.595 57.9063 189.461 57.2605C190.326 56.6147 190.993 55.6871 191.46 54.4779C191.927 53.2686 192.161 51.8189 192.161 50.1287C192.161 48.4111 191.927 46.9339 191.46 45.6971C191.007 44.4467 190.34 43.4848 189.461 42.8115C188.595 42.1381 187.551 41.8015 186.328 41.8015C185.077 41.8015 184.019 42.145 183.153 42.8321C182.288 43.5191 181.628 44.4879 181.175 45.7384C180.735 46.9751 180.515 48.4385 180.515 50.1287C180.515 51.8189 180.742 53.2686 181.195 54.4779C181.649 55.6871 182.301 56.6147 183.153 57.2605C184.019 57.9063 185.077 58.2293 186.328 58.2293ZM218.58 47.9439V66H208.501V23.7866H218.25V40.1525H218.601C219.315 38.2012 220.483 36.6759 222.105 35.5766C223.74 34.4773 225.74 33.9277 228.103 33.9277C230.329 33.9277 232.267 34.4224 233.916 35.4117C235.565 36.3874 236.843 37.7684 237.749 39.5548C238.67 41.3411 239.124 43.4298 239.11 45.8208V66H229.031V47.7996C229.044 46.0407 228.605 44.6665 227.711 43.6772C226.818 42.6878 225.561 42.1931 223.939 42.1931C222.881 42.1931 221.947 42.4267 221.136 42.8939C220.339 43.3474 219.714 44.0001 219.26 44.8521C218.821 45.704 218.594 46.7346 218.58 47.9439ZM263.272 34.3399V41.7603H243.299V34.3399H263.272ZM247.483 26.7547H257.563V56.0444C257.563 56.6627 257.659 57.1643 257.851 57.5491C258.057 57.9201 258.353 58.188 258.738 58.3529C259.122 58.5041 259.583 58.5797 260.119 58.5797C260.503 58.5797 260.909 58.5453 261.335 58.4766C261.775 58.3942 262.104 58.3255 262.324 58.2705L263.849 65.5465C263.369 65.6839 262.688 65.8557 261.809 66.0618C260.943 66.268 259.906 66.3985 258.696 66.4535C256.333 66.5634 254.306 66.2886 252.616 65.629C250.939 64.9557 249.655 63.9113 248.761 62.496C247.882 61.0806 247.456 59.3011 247.483 57.1574V26.7547Z" fill="white"/>
<g filter="url(#filter0_d_373_8571)">
<circle cx="285.864" cy="64.3635" r="14.1884" fill="#6E6BFF"/>
</g>
<defs>
<filter id="filter0_d_373_8571" x="248.974" y="27.4736" width="73.7797" height="73.7796" filterUnits="userSpaceOnUse" color-interpolation-filters="sRGB">
<feFlood flood-opacity="0" result="BackgroundImageFix"/>
<feColorMatrix in="SourceAlpha" type="matrix" values="0 0 0 0 0 0 0 0 0 0 0 0 0 0 0 0 0 0 127 0" result="hardAlpha"/>
<feOffset/>
<feGaussianBlur stdDeviation="11.3507"/>
<feColorMatrix type="matrix" values="0 0 0 0 0.607843 0 0 0 0 0.423529 0 0 0 0 1 0 0 0 0.35 0"/>
<feBlend mode="normal" in2="BackgroundImageFix" result="effect1_dropShadow_373_8571"/>
<feBlend mode="normal" in="SourceGraphic" in2="effect1_dropShadow_373_8571" result="shape"/>
</filter>
</defs>
</svg>
