<svg width="150" height="30" viewBox="0 0 112 36" fill="none" xmlns="http://www.w3.org/2000/svg">
<path d="M8.95826 12.8208C8.91094 12.3002 8.70035 11.8956 8.3265 11.607C7.95738 11.3136 7.42973 11.1669 6.74354 11.1669C6.28924 11.1669 5.91066 11.226 5.60779 11.3443C5.30492 11.4626 5.07777 11.6259 4.92633 11.8341C4.7749 12.0376 4.69682 12.2719 4.69209 12.5369C4.68262 12.7545 4.72521 12.9462 4.81986 13.1118C4.91924 13.2775 5.06121 13.4242 5.24577 13.5519C5.43506 13.675 5.66221 13.7838 5.92722 13.8785C6.19223 13.9731 6.49036 14.0559 6.82162 14.1269L8.07095 14.4109C8.79027 14.567 9.4244 14.7752 9.97334 15.0355C10.527 15.2958 10.9908 15.6058 11.3646 15.9654C11.7432 16.3251 12.0295 16.7392 12.2236 17.2077C12.4176 17.6762 12.517 18.2014 12.5217 18.7835C12.517 19.7016 12.2851 20.4895 11.826 21.1473C11.367 21.8051 10.7069 22.3091 9.84557 22.6593C8.98902 23.0095 7.95501 23.1846 6.74354 23.1846C5.52734 23.1846 4.4673 23.0024 3.56343 22.638C2.65956 22.2736 1.95681 21.7199 1.45519 20.9769C0.95356 20.234 0.69565 19.2946 0.681453 18.1588H4.04613C4.07452 18.6273 4.19993 19.0178 4.42234 19.3301C4.64476 19.6424 4.95 19.879 5.33805 20.0399C5.73083 20.2008 6.18513 20.2813 6.70095 20.2813C7.17418 20.2813 7.57643 20.2174 7.90769 20.0896C8.24368 19.9619 8.5016 19.7844 8.68142 19.5572C8.86125 19.3301 8.95353 19.0698 8.95826 18.7764C8.95353 18.5019 8.86835 18.2677 8.70272 18.0737C8.53709 17.8749 8.28154 17.7045 7.93608 17.5626C7.59536 17.4159 7.15999 17.281 6.62997 17.158L5.11089 16.803C3.8521 16.5144 2.86068 16.0482 2.13664 15.4046C1.41259 14.7563 1.05294 13.8808 1.05767 12.7782C1.05294 11.8791 1.29429 11.0911 1.78171 10.4144C2.26914 9.7377 2.9435 9.21005 3.80478 8.83146C4.66606 8.45288 5.64801 8.26359 6.75064 8.26359C7.87693 8.26359 8.85415 8.45524 9.68231 8.83856C10.5152 9.21715 11.1612 9.74953 11.6202 10.4357C12.0792 11.1219 12.3135 11.9169 12.3229 12.8208H8.95826ZM14.2963 27.0887V12.0968H17.732V13.9637H17.8384C17.9804 13.6324 18.1815 13.313 18.4418 13.0054C18.7068 12.6978 19.0428 12.4469 19.4498 12.2529C19.8615 12.0542 20.3537 11.9548 20.9263 11.9548C21.6834 11.9548 22.3909 12.1535 23.0487 12.5511C23.7112 12.9486 24.246 13.5614 24.653 14.3896C25.0599 15.2177 25.2634 16.273 25.2634 17.5555C25.2634 18.7906 25.067 19.8246 24.6743 20.6575C24.2862 21.4904 23.7609 22.1151 23.0984 22.5315C22.4406 22.9479 21.7095 23.1562 20.905 23.1562C20.356 23.1562 19.8804 23.0663 19.4782 22.8864C19.0759 22.7066 18.7376 22.47 18.4631 22.1766C18.1934 21.8832 17.9851 21.5685 17.8384 21.2325H17.7675V27.0887H14.2963ZM17.6965 17.5484C17.6965 18.1352 17.7746 18.6463 17.9307 19.0816C18.0916 19.517 18.3211 19.8554 18.6193 20.0967C18.9221 20.3333 19.2842 20.4517 19.7053 20.4517C20.1312 20.4517 20.4933 20.3333 20.7914 20.0967C21.0895 19.8554 21.3143 19.517 21.4658 19.0816C21.6219 18.6463 21.7 18.1352 21.7 17.5484C21.7 16.9616 21.6219 16.4528 21.4658 16.0222C21.3143 15.5916 21.0895 15.2579 20.7914 15.0213C20.498 14.7847 20.136 14.6664 19.7053 14.6664C19.2794 14.6664 18.9174 14.7823 18.6193 15.0142C18.3211 15.2461 18.0916 15.5774 17.9307 16.008C17.7746 16.4387 17.6965 16.9521 17.6965 17.5484ZM32.172 23.2059C31.0268 23.2059 30.0425 22.9716 29.2191 22.5031C28.4004 22.0299 27.7686 21.3721 27.3238 20.5297C26.8837 19.6827 26.6636 18.7007 26.6636 17.5839C26.6636 16.4623 26.8837 15.4804 27.3238 14.638C27.7686 13.7909 28.4004 13.1331 29.2191 12.6646C30.0425 12.1914 31.0268 11.9548 32.172 11.9548C33.3172 11.9548 34.2992 12.1914 35.1179 12.6646C35.9413 13.1331 36.5731 13.7909 37.0132 14.638C37.458 15.4804 37.6804 16.4623 37.6804 17.5839C37.6804 18.7007 37.458 19.6827 37.0132 20.5297C36.5731 21.3721 35.9413 22.0299 35.1179 22.5031C34.2992 22.9716 33.3172 23.2059 32.172 23.2059ZM32.1933 20.5865C32.6098 20.5865 32.9623 20.4587 33.251 20.2032C33.5397 19.9477 33.7597 19.5927 33.9111 19.1384C34.0673 18.6841 34.1454 18.1588 34.1454 17.5626C34.1454 16.9568 34.0673 16.4268 33.9111 15.9725C33.7597 15.5182 33.5397 15.1633 33.251 14.9077C32.9623 14.6522 32.6098 14.5244 32.1933 14.5244C31.7627 14.5244 31.3983 14.6522 31.1001 14.9077C30.8067 15.1633 30.582 15.5182 30.4258 15.9725C30.2744 16.4268 30.1986 16.9568 30.1986 17.5626C30.1986 18.1588 30.2744 18.6841 30.4258 19.1384C30.582 19.5927 30.8067 19.9477 31.1001 20.2032C31.3983 20.4587 31.7627 20.5865 32.1933 20.5865ZM45.613 12.0968V14.6522H38.7345V12.0968H45.613ZM40.1755 9.48452H43.6467V19.5714C43.6467 19.7844 43.6798 19.9571 43.7461 20.0896C43.817 20.2174 43.9188 20.3097 44.0513 20.3665C44.1838 20.4185 44.3423 20.4446 44.5269 20.4446C44.6594 20.4446 44.799 20.4327 44.9457 20.4091C45.0971 20.3807 45.2107 20.357 45.2864 20.3381L45.8117 22.8438C45.6461 22.8912 45.4118 22.9503 45.109 23.0213C44.8108 23.0923 44.4535 23.1372 44.0371 23.1562C43.2231 23.194 42.5251 23.0994 41.9431 22.8722C41.3657 22.6403 40.9232 22.2807 40.6156 21.7933C40.3128 21.3058 40.1661 20.693 40.1755 19.9548V9.48452ZM51.0894 8.46234V23H47.6183V8.46234H51.0894ZM53.2988 23V12.0968H56.77V23H53.2988ZM55.0379 10.8261C54.5505 10.8261 54.1317 10.6652 53.7815 10.3434C53.4313 10.0169 53.2562 9.62413 53.2562 9.16509C53.2562 8.71079 53.4313 8.32274 53.7815 8.00094C54.1317 7.67441 54.5505 7.51115 55.0379 7.51115C55.5301 7.51115 55.9489 7.67441 56.2944 8.00094C56.6446 8.32274 56.8197 8.71079 56.8197 9.16509C56.8197 9.62413 56.6446 10.0169 56.2944 10.3434C55.9489 10.6652 55.5301 10.8261 55.0379 10.8261ZM64.0619 27.3159C63.0255 27.3159 62.1382 27.1715 61.3999 26.8829C60.6617 26.5942 60.082 26.199 59.6608 25.6974C59.2396 25.1958 58.9865 24.6279 58.9013 23.9938L62.1879 23.8092C62.2494 24.0316 62.363 24.2257 62.5286 24.3913C62.699 24.5569 62.919 24.6847 63.1888 24.7746C63.4632 24.8645 63.785 24.9095 64.1541 24.9095C64.7362 24.9095 65.2166 24.7675 65.5951 24.4836C65.9785 24.2044 66.1701 23.7146 66.1701 23.0142V21.0976H66.0494C65.9122 21.4336 65.704 21.7341 65.4248 21.9991C65.1456 22.2641 64.7977 22.4723 64.3813 22.6238C63.9696 22.7752 63.4964 22.8509 62.9616 22.8509C62.1666 22.8509 61.4378 22.6664 60.7753 22.2973C60.1175 21.9234 59.5898 21.3461 59.1923 20.5652C58.7995 19.7797 58.6031 18.7693 58.6031 17.5342C58.6031 16.2612 58.8066 15.213 59.2136 14.3896C59.6206 13.5614 60.153 12.9486 60.8108 12.5511C61.4733 12.1535 62.1855 11.9548 62.9474 11.9548C63.52 11.9548 64.0098 12.0542 64.4168 12.2529C64.8285 12.4469 65.1669 12.6978 65.4319 13.0054C65.6969 13.313 65.898 13.6324 66.0352 13.9637H66.1346V12.0968H69.5916V23.0426C69.5916 23.9654 69.3597 24.7439 68.8959 25.378C68.4322 26.0121 67.7838 26.4924 66.9509 26.819C66.1181 27.1502 65.155 27.3159 64.0619 27.3159ZM64.1683 20.3239C64.5895 20.3239 64.9492 20.2127 65.2473 19.9903C65.5454 19.7678 65.775 19.4484 65.9359 19.032C66.0968 18.6155 66.1772 18.1163 66.1772 17.5342C66.1772 16.9426 66.0968 16.4339 65.9359 16.008C65.7797 15.5774 65.5502 15.2461 65.2473 15.0142C64.9492 14.7823 64.5895 14.6664 64.1683 14.6664C63.7377 14.6664 63.3733 14.7847 63.0752 15.0213C62.777 15.2579 62.5499 15.5916 62.3937 16.0222C62.2423 16.4481 62.1666 16.9521 62.1666 17.5342C62.1666 18.1163 62.2447 18.6155 62.4008 19.032C62.557 19.4484 62.7818 19.7678 63.0752 19.9903C63.3733 20.2127 63.7377 20.3239 64.1683 20.3239ZM75.2757 16.7817V23H71.8045V8.46234H75.1621V14.0985H75.2828C75.5288 13.4265 75.9311 12.9013 76.4895 12.5227C77.0526 12.1441 77.7412 11.9548 78.5552 11.9548C79.3218 11.9548 79.989 12.1252 80.5569 12.4659C81.1248 12.8019 81.5649 13.2775 81.8772 13.8927C82.1943 14.5079 82.3505 15.2272 82.3457 16.0506V23H78.8746V16.7321C78.8793 16.1263 78.7279 15.6531 78.4203 15.3124C78.1127 14.9716 77.6797 14.8013 77.1213 14.8013C76.7569 14.8013 76.4351 14.8817 76.1559 15.0426C75.8814 15.1988 75.6661 15.4236 75.5099 15.717C75.3585 16.0104 75.2804 16.3653 75.2757 16.7817ZM90.6669 12.0968V14.6522H83.7885V12.0968H90.6669ZM85.2295 9.48452H88.7006V19.5714C88.7006 19.7844 88.7338 19.9571 88.8 20.0896C88.871 20.2174 88.9727 20.3097 89.1053 20.3665C89.2378 20.4185 89.3963 20.4446 89.5809 20.4446C89.7134 20.4446 89.853 20.4327 89.9997 20.4091C90.1511 20.3807 90.2647 20.357 90.3404 20.3381L90.8657 22.8438C90.7 22.8912 90.4658 22.9503 90.1629 23.0213C89.8648 23.0923 89.5075 23.1372 89.0911 23.1562C88.2771 23.194 87.5791 23.0994 86.997 22.8722C86.4197 22.6403 85.9772 22.2807 85.6696 21.7933C85.3667 21.3058 85.22 20.693 85.2295 19.9548V9.48452Z" fill="white"/>
<g filter="url(#filter0_d_373_8571)">
<circle cx="98.8407" cy="22.3409" r="4.88627" fill="#6E6BFF"/>
</g>
<defs>
<filter id="filter0_d_373_8571" x="86.1364" y="9.63656" width="25.4086" height="25.4085" filterUnits="userSpaceOnUse" color-interpolation-filters="sRGB">
<feFlood flood-opacity="0" result="BackgroundImageFix"/>
<feColorMatrix in="SourceAlpha" type="matrix" values="0 0 0 0 0 0 0 0 0 0 0 0 0 0 0 0 0 0 127 0" result="hardAlpha"/>
<feOffset/>
<feGaussianBlur stdDeviation="3.90901"/>
<feColorMatrix type="matrix" values="0 0 0 0 0.607843 0 0 0 0 0.423529 0 0 0 0 1 0 0 0 0.35 0"/>
<feBlend mode="normal" in2="BackgroundImageFix" result="effect1_dropShadow_373_8571"/>
<feBlend mode="normal" in="SourceGraphic" in2="effect1_dropShadow_373_8571" result="shape"/>
</filter>
</defs>
</svg>
